<?xml version="1.0" encoding="UTF-8" standalone="no"?>
<svg
   version="1.0"
   width="24pt"
   height="24pt"
   viewBox="50 150 775 775"
   preserveAspectRatio="xMidYMid"
   id="svg3"
   xmlns="http://www.w3.org/2000/svg"
   xmlns:svg="http://www.w3.org/2000/svg">
  <defs
     id="defs3" />
  <metadata
     id="metadata1">
Created by potrace 1.16, written by Peter Selinger 2001-2019
</metadata>
  <g
     transform="matrix(0.1,0,0,-0.1,0,1248)"
     fill="#ffffff"
     stroke="none"
     id="g3"
     clip-path="none"
     mask="none">
    <path
       d="m 6090,12441 -19,-39 -64,-65 -64,-65 -84,-41 -84,-41 -140,-35 -140,-36 -65,-21 -65,-21 -65,-34 -65,-35 -68,-50 -67,-50 -51,-57 -51,-56 -49,-74 -49,-74 -30,-74 -31,-74 -20,-77 -20,-77 -5,-105 -6,-105 16,-91 16,-92 26,-83 26,-84 52,-100 52,-100 79,-125 78,-125 34,-72 33,-72 16,-68 16,-68 -5,-90 -5,-90 -20,-53 -20,-53 -33,-51 -33,-51 -64,-52 -64,-53 -151,-76 -152,-75 -59,-48 -60,-48 -43,-63 -43,-63 -17,-57 -17,-57 v -72 l 1,-73 h -66 -66 l -120,-10 -120,-10 -124,-26 -125,-26 -95,-35 -96,-34 -110,-53 -110,-54 -99,-70 -98,-70 -82,-73 -81,-74 -59,-65 -59,-65 -69,-97 -69,-96 -68,-134 -67,-133 -42,-126 -41,-126 -21,-109 -21,-109 -9,-125 -9,-125 -1,-1525 V 4035 l -10,-95 -10,-95 -11,-50 -11,-50 -25,-80 -26,-80 -32,-65 -33,-65 -53,-74 -52,-74 -48,-49 -49,-49 v -3 -3 l 58,9 57,9 80,20 80,21 80,27 80,28 90,43 90,42 96,64 96,63 74,73 74,73 53,70 52,70 49,100 49,100 25,80 26,80 15,75 16,75 10,90 10,90 v 660 660 l 46,-53 45,-52 72,-58 72,-58 60,-36 60,-36 75,-35 76,-34 79,-26 80,-27 70,-14 70,-15 125,-11 125,-12 90,6 90,7 95,14 95,15 76,19 77,20 98,37 99,37 79,39 79,40 56,36 56,36 65,50 65,50 64,56 64,55 72,82 71,81 57,85 57,85 49,93 49,94 31,89 31,88 24,97 24,96 11,75 11,75 10,150 10,150 15,58 15,57 26,52 27,52 61,61 61,61 70,34 70,33 139,39 140,39 68,36 68,36 51,55 50,55 24,47 24,48 15,68 15,69 10,134 11,134 20,66 19,66 36,60 35,60 50,47 49,46 55,31 54,31 77,20 77,20 137,10 136,11 74,15 75,16 65,24 66,25 52,36 53,36 v 1739 1738 H 7215 6110 Z m 918,-786 62,-15 59,-29 58,-30 46,-51 46,-51 20,-55 21,-55 v -75 -75 l -20,-58 -20,-59 -34,-59 -34,-58 -42,-48 -42,-48 -82,-62 -81,-63 -40,-26 -40,-26 -135,-77 -135,-77 -70,-53 -70,-52 -64,-63 -63,-64 -50,-70 -50,-71 -48,-95 -48,-96 -37,-99 -37,-100 -50,-94 -50,-95 -43,-55 -42,-56 -45,-41 -44,-41 -57,-36 -56,-36 -50,-25 -49,-25 -73,-21 -72,-20 -131,-10 -131,-10 -60,-5 -60,-5 95,29 95,28 51,21 51,20 74,46 74,45 46,45 47,44 40,54 40,53 36,70 35,70 25,91 24,92 11,88 11,89 20,191 20,192 24,123 24,124 32,100 33,100 37,81 37,80 63,95 64,94 75,76 76,75 75,53 75,53 55,28 55,28 75,26 75,26 60,9 60,9 45,1 45,1 z m 538,-1778 51,-26 28,-37 29,-38 4,-57 4,-58 -22,-46 -22,-45 -41,-41 -42,-41 -45,-23 -45,-23 -48,-16 -48,-16 -97,-21 -97,-21 -64,-24 -64,-24 -61,-41 -61,-41 -43,-42 -44,-41 -43,-60 -43,-60 -25,-56 -25,-55 -21,-68 -21,-68 -1,-27 v -26 l -11,25 -10,25 5,145 5,145 12,55 12,55 20,70 20,70 34,78 34,78 49,73 50,74 43,47 43,47 72,54 73,55 56,26 57,26 46,13 46,13 100,-3 100,-3 z m -1270,-484 26,-28 22,-45 21,-45 v -85 l -1,-85 -33,-70 -34,-70 -151,-150 -151,-150 -36,-75 -36,-75 -13,-54 -13,-54 6,-106 5,-106 7,-17 7,-18 h -8 -9 l -37,58 -37,57 -118,120 -118,121 -75,55 -75,55 -90,54 -90,54 -90,38 -90,39 -75,24 -75,24 -84,20 -84,21 h -19 -20 l 4,12 5,13 48,17 49,18 76,17 75,17 135,1 h 135 l 175,-9 175,-8 95,17 94,16 76,30 76,29 46,29 46,29 43,39 42,38 38,52 38,51 28,56 27,56 h 8 7 z m 462,-1147 27,-14 18,-20 18,-19 9,-33 10,-34 -12,-38 -11,-37 -17,-18 -17,-18 -27,-23 -27,-23 -102,-25 -102,-25 -58,-31 -58,-31 -52,-57 -52,-56 -32,-61 -33,-61 -19,-78 -19,-79 -7,30 -7,30 -24,88 -24,88 v 15 15 l 34,72 35,72 42,65 42,65 39,47 39,47 62,47 62,46 47,24 48,24 37,9 38,9 33,1 33,1 z m -2190,-162 77,-15 40,-14 40,-13 75,-35 76,-34 54,-38 55,-38 35,-30 35,-30 61,-69 61,-69 45,-77 45,-77 28,-70 28,-70 18,-90 19,-90 v -100 -100 l -15,-80 -14,-80 -12,-40 -11,-40 -48,-100 -48,-100 -50,-66 -50,-65 -53,-49 -54,-48 -67,-43 -66,-43 -49,-24 -48,-24 -80,-26 -80,-26 -95,-17 -95,-16 -95,6 -95,6 -92,25 -92,24 -65,30 -65,29 -70,46 -70,45 -70,68 -70,68 -65,109 -65,108 -21,57 -21,56 -15,55 -15,55 -11,97 -12,98 13,105 12,106 21,67 20,67 25,60 25,60 54,81 54,82 71,71 71,71 82,54 81,54 62,26 62,26 73,19 73,20 25,4 25,4 113,2 113,1 z"
       id="path1" />
  </g>
</svg>
